<svg width="45" height="44" viewBox="0 0 45 44" fill="none" xmlns="http://www.w3.org/2000/svg">
<path d="M41.6923 32.9472H40.778V8.26851C40.778 5.74736 38.7285 3.69864 36.2081 3.69864H11.5294V2.78435C11.5294 1.27229 10.2993 0.0422668 8.78728 0.0422668H3.30312C1.79105 0.0422668 0.561035 1.27229 0.561035 2.78435V41.1735C0.561035 42.6855 1.79105 43.9156 3.30312 43.9156H41.6923C43.2043 43.9156 44.4343 42.6855 44.4343 41.1735V35.6893C44.4343 34.1773 43.2043 32.9472 41.6923 32.9472ZM36.2081 5.52643C37.7202 5.52643 38.9502 6.75645 38.9502 8.26851V32.9472H31.6382V32.033C31.6382 31.5284 31.2285 31.1187 30.7239 31.1187C30.2194 31.1187 29.8096 31.5284 29.8096 32.033V32.9472H11.5294V14.667H12.4436C12.9482 14.667 13.3572 14.2572 13.3572 13.7527C13.3572 13.2481 12.9474 12.8384 12.4436 12.8384H11.5294V5.52643H36.2081ZM2.38883 40.7951V34.775H8.40887L2.38883 40.7951ZM3.30312 1.87006H8.78728C9.29025 1.87006 9.70157 2.28137 9.70157 2.78435V32.9472H2.38883V29.2909H3.30312C3.80766 29.2909 4.2174 28.8811 4.2174 28.3774C4.2174 27.8728 3.80766 27.4631 3.30312 27.4631H2.38883V23.8067H5.13091C5.63545 23.8067 6.0452 23.397 6.0452 22.8932C6.0452 22.3887 5.63545 21.9789 5.13091 21.9789H2.38883V18.3225H3.30312C3.80766 18.3225 4.2174 17.9128 4.2174 17.409C4.2174 16.9045 3.80766 16.4948 3.30312 16.4948H2.38883V12.8384H5.13091C5.63545 12.8384 6.0452 12.4286 6.0452 11.9249C6.0452 11.4203 5.63545 11.0106 5.13091 11.0106H2.38883V7.35422H3.30312C3.80766 7.35422 4.2174 6.94448 4.2174 6.44072C4.2174 5.93618 3.80766 5.52643 3.30312 5.52643H2.38883V2.78435C2.38883 2.28137 2.80014 1.87006 3.30312 1.87006ZM3.68152 42.0878L9.70157 36.0677V42.0878H3.68152ZM42.6065 41.1735C42.6065 41.6765 42.1952 42.0878 41.6923 42.0878H38.9502V41.1735C38.9502 40.6689 38.5404 40.2592 38.0359 40.2592C37.5313 40.2592 37.1224 40.6689 37.1224 41.1735V42.0878H33.466V39.3457C33.466 38.8411 33.0563 38.4314 32.5517 38.4314C32.0472 38.4314 31.6382 38.8411 31.6382 39.3457V42.0878H27.9818V41.1735C27.9818 40.6689 27.5721 40.2592 27.0676 40.2592C26.563 40.2592 26.1541 40.6689 26.1541 41.1735V42.0878H22.4977V39.3457C22.4977 38.8411 22.0879 38.4314 21.5834 38.4314C21.0789 38.4314 20.6699 38.8411 20.6699 39.3457V42.0878H17.0135V41.1735C17.0135 40.6689 16.6038 40.2592 16.0992 40.2592C15.5947 40.2592 15.1857 40.6689 15.1857 41.1735V42.0878H11.5294V34.7758H41.6923C42.1952 34.7758 42.6065 35.1871 42.6065 35.6901V41.1735Z" fill="black"/>
<path d="M16.0992 14.667H17.927C18.4316 14.667 18.8413 14.2572 18.8413 13.7527C18.8413 13.2481 18.4316 12.8384 17.9278 12.8384H16.1C15.5955 12.8384 15.1857 13.2481 15.1857 13.7527C15.1857 14.2572 15.5947 14.667 16.0992 14.667Z" fill="black"/>
<path d="M21.5834 14.667H23.4112C23.9157 14.667 24.3255 14.2572 24.3255 13.7527C24.3255 13.2481 23.9157 12.8384 23.412 12.8384H21.5842C21.0796 12.8384 20.6699 13.2481 20.6699 13.7527C20.6699 14.2572 21.0789 14.667 21.5834 14.667Z" fill="black"/>
<path d="M30.7239 25.6353C30.2194 25.6353 29.8096 26.045 29.8096 26.5496V28.3774C29.8096 28.8819 30.2194 29.2917 30.7239 29.2917C31.2285 29.2917 31.6382 28.8819 31.6382 28.3774V26.5496C31.6382 26.045 31.2285 25.6353 30.7239 25.6353Z" fill="black"/>
<path d="M30.7239 20.1511C30.2194 20.1511 29.8096 20.5609 29.8096 21.0654V22.8932C29.8096 23.3977 30.2194 23.8075 30.7239 23.8075C31.2285 23.8075 31.6382 23.3977 31.6382 22.8932V21.0654C31.6382 20.5609 31.2285 20.1511 30.7239 20.1511Z" fill="black"/>
<path d="M27.0676 14.667C28.5796 14.667 29.8096 15.897 29.8096 17.409C29.8096 17.9136 30.2194 18.3233 30.7239 18.3233C31.2285 18.3233 31.6382 17.9136 31.6382 17.409C31.6382 14.8879 29.5887 12.8384 27.0676 12.8384C26.563 12.8384 26.1541 13.2481 26.1541 13.7527C26.1541 14.2572 26.563 14.667 27.0676 14.667Z" fill="black"/>
<path d="M31.9046 12.572C32.2611 12.9285 32.8408 12.9285 33.1973 12.572L35.2938 10.4755V11.9249C35.2938 12.4294 35.7035 12.8384 36.2081 12.8384C36.7126 12.8384 37.1224 12.4286 37.1224 11.9249V8.26851C37.1224 7.76397 36.7126 7.35422 36.2081 7.35422H32.5517C32.0472 7.35422 31.6382 7.76397 31.6382 8.26851C31.6382 8.77305 32.048 9.1828 32.5517 9.1828H34.0011L31.9062 11.2777C31.5481 11.6366 31.5481 12.214 31.9046 12.572Z" fill="black"/>
<path d="M13.3572 28.3774C13.3572 29.8894 14.5872 31.1194 16.0992 31.1194C16.6038 31.1194 17.0135 30.7097 17.0135 30.2052C17.0135 29.7006 16.6038 29.2909 16.0992 29.2909C15.597 29.2909 15.1857 28.8796 15.1857 28.3774V26.5496C15.1857 26.045 14.776 25.6353 14.2714 25.6353C13.7669 25.6353 13.3572 26.045 13.3572 26.5488V28.3774Z" fill="black"/>
<path d="M20.6699 30.2052C20.6699 30.7097 20.2601 31.1194 19.7556 31.1194C19.2511 31.1194 18.8413 30.7097 18.8413 30.2052C18.8413 29.7006 19.2511 29.2909 19.7556 29.2909C20.2601 29.2909 20.6699 29.7006 20.6699 30.2052Z" fill="black"/>
</svg>
