<svg width="30" height="44" viewBox="0 0 30 44" fill="none" xmlns="http://www.w3.org/2000/svg">
<path d="M25.0517 0.0422974H4.9429C2.4241 0.0422974 0.373016 2.09337 0.373016 4.61217V39.3449C0.373016 41.8645 2.42408 43.9156 4.94366 43.9156H25.0525C27.5713 43.9156 29.6224 41.8645 29.6224 39.3457V4.61217C29.6216 2.09337 27.5705 0.0422974 25.0517 0.0422974ZM18.8217 1.87009C18.7199 2.15683 18.6541 2.46238 18.6541 2.78438C18.6541 3.28892 18.2443 3.69867 17.7398 3.69867H12.2556C11.7511 3.69867 11.3413 3.28892 11.3413 2.78438C11.3413 2.46238 11.2755 2.15762 11.1737 1.87009H18.8217ZM27.7938 39.3457C27.7938 40.8578 26.5638 42.0878 25.0517 42.0878H4.9429C3.43162 42.0878 2.20082 40.8578 2.20082 39.3457V4.61295C2.20082 3.10089 3.43084 1.87087 4.9429 1.87087H8.59926C9.1038 1.87087 9.51276 2.28062 9.51276 2.78516C9.51276 4.29722 10.7428 5.52724 12.2548 5.52724H17.739C19.2511 5.52724 20.4811 4.29722 20.4811 2.78516C20.4811 2.28062 20.8908 1.87087 21.3954 1.87087H25.0517C26.563 1.87087 27.7938 3.10089 27.7938 4.61295V39.3457Z" fill="black"/>
<path d="M14.9977 34.7751C13.4856 34.7751 12.2556 36.0051 12.2556 37.5171C12.2556 39.0292 13.4856 40.2592 14.9977 40.2592C16.5098 40.2592 17.7398 39.0292 17.7398 37.5171C17.7398 36.0051 16.5098 34.7751 14.9977 34.7751ZM14.9977 38.4314C14.4932 38.4314 14.0834 38.0217 14.0834 37.5171C14.0834 37.0126 14.4932 36.6036 14.9977 36.6036C15.5022 36.6036 15.912 37.0134 15.912 37.5179C15.912 38.0217 15.5022 38.4314 14.9977 38.4314Z" fill="black"/>
<path d="M5.85718 30.2052C5.85718 30.7097 5.4482 31.1195 4.94366 31.1195C4.43834 31.1195 4.02938 30.7097 4.02938 30.2052C4.02938 29.7006 4.43834 29.2909 4.94366 29.2909C5.4482 29.2909 5.85718 29.7006 5.85718 30.2052Z" fill="black"/>
<path d="M8.59926 38.4314H6.77146C6.26692 38.4314 5.85718 38.0217 5.85718 37.5171V33.8608C5.85718 33.3562 5.44742 32.9473 4.94366 32.9473C4.43912 32.9473 4.02938 33.357 4.02938 33.8616V37.5179C4.02938 39.0292 5.2594 40.26 6.77146 40.26H8.59926C9.1038 40.26 9.51354 39.8503 9.51354 39.3465C9.51354 38.8404 9.1038 38.4314 8.59926 38.4314Z" fill="black"/>
</svg>
