<svg width="44" height="44" viewBox="0 0 44 44" fill="none" xmlns="http://www.w3.org/2000/svg">
<path fill-rule="evenodd" clip-rule="evenodd" d="M8.28772 9.1828C9.79978 9.1828 11.0298 7.95278 11.0298 6.44072C11.0298 4.92865 9.79978 3.69864 8.28772 3.69864C6.77566 3.69864 5.54564 4.92865 5.54564 6.44072C5.54564 7.95278 6.77566 9.1828 8.28772 9.1828ZM8.28772 5.52643C8.79226 5.52643 9.202 5.93774 9.202 6.44072C9.202 6.94291 8.79226 7.35422 8.28772 7.35422C7.78318 7.35422 7.37344 6.94291 7.37344 6.44072C7.37344 5.93774 7.7824 5.52643 8.28772 5.52643Z" fill="black"/>
<path fill-rule="evenodd" clip-rule="evenodd" d="M18.3418 6.44072C18.3418 7.95278 17.1117 9.1828 15.5997 9.1828C14.0876 9.1828 12.8576 7.95278 12.8576 6.44072C12.8576 4.92865 14.0876 3.69864 15.5997 3.69864C17.1117 3.69864 18.3418 4.92865 18.3418 6.44072ZM16.514 6.44072C16.514 5.93774 16.1042 5.52643 15.5997 5.52643C15.0951 5.52643 14.6854 5.93774 14.6862 6.44072C14.6862 6.94291 15.0951 7.35422 15.5997 7.35422C16.1042 7.35422 16.514 6.94291 16.514 6.44072Z" fill="black"/>
<path fill-rule="evenodd" clip-rule="evenodd" d="M22.9124 9.1828C24.4245 9.1828 25.6545 7.95278 25.6545 6.44072C25.6545 4.92865 24.4245 3.69864 22.9124 3.69864C21.4003 3.69864 20.1703 4.92865 20.1703 6.44072C20.1703 7.95278 21.4003 9.1828 22.9124 9.1828ZM22.9124 5.52643C23.417 5.52643 23.8259 5.93774 23.8259 6.44072C23.8259 6.94291 23.4162 7.35422 22.9124 7.35422C22.4079 7.35422 21.9981 6.94291 21.9981 6.44072C21.9981 5.93774 22.4071 5.52643 22.9124 5.52643Z" fill="black"/>
<path fill-rule="evenodd" clip-rule="evenodd" d="M11.9433 14.667H32.0522C34.571 14.667 36.6221 16.7157 36.6236 19.2392V35.6917C36.6236 38.212 34.5725 40.2616 32.0537 40.2616H23.8275C22.3154 40.2616 21.0854 39.0315 21.0854 37.5195V35.4355C21.0854 35.1064 21.2609 34.8009 21.5476 34.6403C21.8352 34.4758 22.1877 34.4812 22.4674 34.6513C23.0566 35.0007 23.8259 34.5212 23.8259 33.8615C23.8259 33.2011 23.055 32.7224 22.4658 33.0734C22.1861 33.245 21.8328 33.2489 21.5461 33.0844C21.2609 32.9237 21.0838 32.6182 21.0838 32.2891V28.3774H18.3418C18.3418 29.8894 17.1117 31.1195 15.5997 31.1195C14.0876 31.1195 12.8576 29.8894 12.8576 28.3774H10.1155C8.60346 28.3774 7.37344 27.1474 7.37344 25.6353V19.2368C7.37344 16.7165 9.42452 14.667 11.9433 14.667ZM17.1721 26.5488H21.0838L21.0854 23.8067C19.5734 23.8067 18.3433 22.5767 18.3433 21.0646C18.3433 19.5526 19.5734 18.3225 21.0854 18.3225V16.4948H11.9449C10.4328 16.4948 9.20281 17.7248 9.20281 19.2368V25.6353C9.20281 26.1375 9.61174 26.5488 10.1163 26.5488H14.0281C14.3571 26.5488 14.6603 26.7266 14.8233 27.0134C14.9854 27.2986 14.9823 27.6511 14.8123 27.9347C14.7285 28.0718 14.6862 28.2222 14.6862 28.3774C14.6862 28.8796 15.0951 29.2909 15.5997 29.2909C16.1042 29.2909 16.514 28.8796 16.514 28.3774C16.514 28.2215 16.4717 28.0718 16.3878 27.9347C16.2194 27.6511 16.2139 27.2986 16.3769 27.0134C16.5398 26.7259 16.843 26.5488 17.1721 26.5488ZM32.0522 38.4314C33.5642 38.4314 34.7943 37.2014 34.7943 35.6893L34.795 28.3774H31.7967C31.4677 28.3774 31.1645 28.1995 31.0016 27.9128C30.8394 27.6276 30.8425 27.2751 31.0125 26.9914C31.0964 26.8543 31.1387 26.7039 31.1387 26.5488C31.1387 26.0458 30.7289 25.6345 30.2244 25.6345C29.7198 25.6345 29.3101 26.0458 29.3101 26.5488C29.3101 26.7047 29.3524 26.8543 29.4362 26.9914C29.6047 27.2751 29.6102 27.6276 29.4472 27.9128C29.2842 28.2003 28.981 28.3774 28.652 28.3774H22.9116V31.1195C24.4237 31.1195 25.6537 32.3495 25.6537 33.8615C25.6537 35.3736 24.4237 36.6036 22.9116 36.6036V37.5171C22.9116 38.0201 23.3214 38.4314 23.8259 38.4314H32.0522ZM32.9665 26.5488H34.7934V19.2368C34.7934 17.7248 33.5634 16.4948 32.0514 16.4948H22.9108V19.4907C22.9108 19.8197 22.7354 20.1253 22.4486 20.2859C22.1611 20.452 21.8101 20.4465 21.5288 20.2749C20.9397 19.9294 20.1703 20.4065 20.1703 21.0646C20.1703 21.7227 20.9381 22.1983 21.5304 21.8528C21.8124 21.6812 22.1634 21.6773 22.4502 21.8418C22.7354 22.0024 22.9124 22.308 22.9124 22.637V26.5488H27.4823C27.4823 25.0367 28.7123 23.8067 30.2244 23.8067C31.7364 23.8067 32.9665 25.0367 32.9665 26.5488Z" fill="black"/>
<path d="M10.1155 38.4314H6.45916C5.95461 38.4314 5.54564 38.0201 5.54564 37.5171V35.6893C5.54564 35.1848 5.1359 34.775 4.63136 34.775C4.12682 34.775 3.71784 35.1848 3.71784 35.6893V37.5171C3.71784 39.0292 4.94786 40.2592 6.45992 40.2592H10.1163C10.6208 40.2592 11.0298 39.8494 11.0298 39.3457C11.029 38.8404 10.6201 38.4314 10.1155 38.4314Z" fill="black"/>
<path d="M13.7719 40.2592C14.2764 40.2592 14.6862 39.8502 14.6862 39.3457C14.6862 38.8404 14.2764 38.4314 13.7719 38.4314C13.2673 38.4314 12.8576 38.8404 12.8576 39.3457C12.8576 39.8502 13.2673 40.2592 13.7719 40.2592Z" fill="black"/>
<path fill-rule="evenodd" clip-rule="evenodd" d="M39.3649 0.0422671H4.63212C2.11254 0.0422671 0.0614777 2.09178 0.0614777 4.61214V39.3449C0.0614777 41.8661 2.11256 43.9156 4.63136 43.9156H39.3641C41.8829 43.9156 43.934 41.87 43.934 39.3567V4.61214C43.9348 2.09099 41.8837 0.0414836 39.3649 0.0422671ZM4.63136 1.87006H39.3641C40.8762 1.87006 42.1062 3.10008 42.1062 4.61214V11.0106H1.88847V4.61214C1.88847 3.10008 3.11851 1.87006 4.63136 1.87006ZM39.3649 42.0878H4.63212C3.12006 42.0878 1.89004 40.8578 1.89004 39.3457V12.8384H42.107V39.3559C42.107 40.8625 40.8762 42.087 39.3649 42.0878Z" fill="black"/>
</svg>
