<svg width="45" height="44" viewBox="0 0 45 44" fill="none" xmlns="http://www.w3.org/2000/svg">
<path d="M14.2714 17.4083C11.7526 17.4083 9.70156 19.4578 9.70156 21.9781C9.70156 22.4827 10.1113 22.8924 10.6159 22.8924C11.1204 22.8924 11.5294 22.4827 11.5294 21.9781C11.5294 20.4661 12.7594 19.2361 14.2714 19.2361C14.776 19.2361 15.1857 18.8263 15.1857 18.3218C15.1857 17.818 14.776 17.4083 14.2714 17.4083Z" fill="black"/>
<path d="M35.2938 21.9781C35.2938 21.4736 34.8841 21.0638 34.3795 21.0638C33.875 21.0638 33.466 21.4736 33.466 21.9781C33.466 23.4902 32.236 24.7202 30.7239 24.7202C30.2194 24.7202 29.8096 25.13 29.8096 25.6345C29.8096 26.139 30.2194 26.5488 30.7239 26.5488C33.2427 26.548 35.2938 24.4993 35.2938 21.9781Z" fill="black"/>
<path d="M19.7556 11.0098C19.2511 11.0098 18.8413 10.5985 18.8413 10.0955C18.8413 9.59333 19.2511 9.18201 19.7556 9.18201C20.2601 9.18201 20.6699 8.77227 20.6699 8.26773C20.6699 7.76318 20.2601 7.35344 19.7556 7.35344C18.2435 7.35344 17.0135 8.58346 17.0135 10.0955C17.0135 11.6076 18.2435 12.8376 19.7556 12.8376C20.2601 12.8376 20.6699 12.4279 20.6699 11.9241C20.6699 11.4196 20.2601 11.0098 19.7556 11.0098Z" fill="black"/>
<path d="M25.2398 31.1187C24.7352 31.1187 24.3255 31.5284 24.3255 32.033C24.3255 32.5375 24.7352 32.9472 25.2398 32.9472C25.7443 32.9472 26.154 33.3586 26.154 33.8615C26.154 34.3637 25.7443 34.775 25.2398 34.775C24.7352 34.775 24.3255 35.1848 24.3255 35.6893C24.3255 36.1939 24.7352 36.6036 25.2398 36.6036C26.7518 36.6036 27.9818 35.3736 27.9818 33.8615C27.9818 32.3495 26.7518 31.1187 25.2398 31.1187Z" fill="black"/>
<path d="M41.6922 31.1187C40.5022 31.1187 39.497 31.8849 39.1186 32.9465H34.3623C34.9405 32.1802 35.2946 31.2354 35.2946 30.2044C35.2946 29.7656 35.2327 29.3324 35.112 28.9266C37.4992 27.4294 38.9509 24.837 38.9509 21.9781C38.9509 21.3514 38.8632 20.7426 38.7277 20.1503H39.8652C41.3773 20.1503 42.6073 18.9203 42.6073 17.4083V14.4977C43.6697 14.1193 44.4351 13.1142 44.4351 11.9241C44.4351 10.412 43.2051 9.18201 41.693 9.18201C40.181 9.18201 38.9509 10.412 38.9509 11.9241C38.9509 13.1142 39.7172 14.1193 40.7787 14.4977V17.4083C40.7787 17.9112 40.369 18.3225 39.8645 18.3225H38.0805C37.417 16.9875 36.393 15.8508 35.0878 15.036C35.2084 14.6262 35.2946 14.2 35.2946 13.7527C35.2946 12.5203 34.794 11.4109 33.9988 10.5883C34.7736 10.1041 35.2946 9.24861 35.2946 8.26851V5.35799C36.3569 4.97958 37.1224 3.97441 37.1224 2.78435C37.1224 1.27229 35.8924 0.0422668 34.3803 0.0422668C32.8682 0.0422668 31.6382 1.27229 31.6382 2.78435C31.6382 3.97441 32.4044 4.97958 33.466 5.35799V8.26851C33.466 8.77149 33.0563 9.1828 32.5517 9.1828H31.5661C31.1203 6.08816 28.4566 3.69864 25.2398 3.69864C24.298 3.69864 23.3587 3.91095 22.4977 4.31678C21.6367 3.91095 20.6973 3.69864 19.7556 3.69864C16.538 3.69864 13.875 6.08816 13.4284 9.1828H5.87674C5.49834 8.12044 4.49317 7.35422 3.30311 7.35422C1.79105 7.35422 0.561026 8.58424 0.561026 10.0963C0.561026 11.6084 1.79105 12.8384 3.30311 12.8384C4.49317 12.8384 5.49834 12.0722 5.87674 11.0106H10.6331C10.0549 11.7768 9.70078 12.7217 9.70078 13.7527C9.70078 14.1914 9.76267 14.6247 9.88332 15.0305C7.49614 16.5277 6.0444 19.1201 6.0444 21.9789C6.0444 22.6057 6.13216 23.2144 6.2677 23.8067H5.13012C3.61806 23.8067 2.38804 25.0367 2.38804 26.5488V29.4593C1.32568 29.8377 0.560242 30.8429 0.560242 32.033C0.560242 33.545 1.79026 34.775 3.30232 34.775C4.81438 34.775 6.0444 33.545 6.0444 32.033C6.0444 30.8429 5.27819 29.8377 4.21661 29.4593V26.5488C4.21661 26.0466 4.62636 25.6353 5.13012 25.6353H6.91404C7.57763 26.9703 8.60159 28.1071 9.90604 28.9219C9.78539 29.3316 9.69999 29.757 9.69999 30.2052C9.69999 31.4375 10.2006 32.5469 10.9958 33.3695C10.221 33.8537 9.69999 34.7092 9.69999 35.6893V38.5998C8.63763 38.9783 7.8722 39.9834 7.8722 41.1735C7.8722 42.6855 9.10222 43.9156 10.6143 43.9156C12.1263 43.9156 13.3564 42.6855 13.3564 41.1735C13.3564 39.9834 12.5901 38.9783 11.5286 38.5998V35.6893C11.5286 35.1863 11.9383 34.775 12.4429 34.775H13.4284C13.8742 37.8697 16.538 40.2592 19.7556 40.2592C20.6973 40.2592 21.6367 40.0469 22.4977 39.6411C23.3579 40.0469 24.298 40.2592 25.2398 40.2592C28.4574 40.2592 31.1203 37.8697 31.5669 34.775H39.1186C39.497 35.8374 40.5022 36.6028 41.6922 36.6028C43.2043 36.6028 44.4343 35.3728 44.4343 33.8607C44.4343 32.3487 43.2043 31.1187 41.6922 31.1187ZM41.6922 11.0098C42.1968 11.0098 42.6065 11.4211 42.6065 11.9241C42.6065 12.4263 42.1968 12.8376 41.6922 12.8376C41.1877 12.8376 40.778 12.4263 40.778 11.9241C40.778 11.4211 41.1877 11.0098 41.6922 11.0098ZM3.30311 32.9465C2.79856 32.9465 2.38883 32.5351 2.38883 32.0322C2.38883 31.53 2.79856 31.1187 3.30311 31.1187C3.80765 31.1187 4.2174 31.53 4.2174 32.0322C4.2174 32.5351 3.80765 32.9465 3.30311 32.9465ZM34.3803 1.86928C34.8848 1.86928 35.2938 2.28059 35.2938 2.78356C35.2938 3.28654 34.8841 3.69785 34.3803 3.69785C33.8758 3.69785 33.466 3.28654 33.466 2.78356C33.466 2.28059 33.8758 1.86928 34.3803 1.86928ZM3.30311 11.0098C2.79856 11.0098 2.38883 10.5985 2.38883 10.0955C2.38883 9.59333 2.79856 9.18201 3.30311 9.18201C3.80765 9.18201 4.2174 9.59333 4.2174 10.0955C4.2174 10.5985 3.80765 11.0098 3.30311 11.0098ZM10.6151 42.087C10.1105 42.087 9.70156 41.6757 9.70156 41.1727C9.70156 40.6697 10.1113 40.2584 10.6151 40.2584C11.1196 40.2584 11.5294 40.6697 11.5294 41.1727C11.5294 41.6757 11.1196 42.087 10.6151 42.087ZM15.1857 33.8607C15.1857 33.3562 14.776 32.9465 14.2714 32.9465C12.7594 32.9465 11.5294 31.7164 11.5294 30.2044C11.5294 28.6923 12.7594 27.4623 14.2714 27.4623C15.3737 27.4623 16.3695 28.1274 16.8145 29.1585C17.0159 29.6246 17.5549 29.8401 18.0156 29.6372C18.4778 29.4397 18.694 28.9007 18.4942 28.4377C17.7609 26.7345 16.1031 25.6337 14.2714 25.6337C12.855 25.6337 11.6046 26.2957 10.7655 27.3103C8.96668 26.1367 7.87377 24.1624 7.87377 21.9774C7.87377 19.5298 9.24089 17.3377 11.44 16.2519C11.6649 16.1406 11.8333 15.9432 11.9078 15.705C11.983 15.4653 11.9556 15.2075 11.8349 14.9866C11.6359 14.6286 11.5301 14.2 11.5301 13.7511C11.5301 12.239 12.7602 11.009 14.2722 11.009C14.7768 11.009 15.1865 10.5993 15.1865 10.0947C15.1865 7.57359 17.2376 5.52486 19.7564 5.52486C20.3855 5.52486 20.9997 5.6933 21.5842 5.94714V38.0076C20.9997 38.2614 20.3847 38.4298 19.7564 38.4298C17.2368 38.4306 15.1857 36.3819 15.1857 33.8607ZM29.8096 33.8607C29.8096 36.3819 27.7586 38.4306 25.2398 38.4306C24.6106 38.4306 23.9964 38.2622 23.412 38.0083V5.94793C23.9964 5.69409 24.6114 5.52565 25.2398 5.52565C27.7586 5.52565 29.8096 7.57516 29.8096 10.0955C29.8096 10.6001 30.2194 11.0098 30.7239 11.0098C32.236 11.0098 33.466 12.2398 33.466 13.7519C33.466 15.264 32.236 16.494 30.7239 16.494C29.6216 16.494 28.6251 15.8288 28.1808 14.7978C27.9818 14.3316 27.442 14.1178 26.9798 14.3207C26.5176 14.5181 26.3013 15.0571 26.5011 15.5201C27.2344 17.2218 28.8922 18.3225 30.7239 18.3225C32.1404 18.3225 33.3908 17.6605 34.2299 16.646C36.0287 17.8196 37.1216 19.7939 37.1216 21.9789C37.1216 24.4264 35.7545 26.6185 33.5553 27.7044C33.3305 27.8156 33.162 28.0131 33.0876 28.2512C33.0124 28.491 33.0398 28.7487 33.1605 28.9697C33.3595 29.3277 33.4652 29.7562 33.4652 30.2052C33.4652 31.7172 32.2352 32.9472 30.7231 32.9472C30.2186 32.9465 29.8096 33.3562 29.8096 33.8607ZM41.6922 34.7743C41.1877 34.7743 40.778 34.3629 40.778 33.86C40.778 33.357 41.1877 32.9457 41.6922 32.9457C42.1968 32.9457 42.6065 33.357 42.6065 33.86C42.6065 34.3629 42.1968 34.7743 41.6922 34.7743Z" fill="black"/>
</svg>
