<svg width="45" height="44" viewBox="0 0 45 44" fill="none" xmlns="http://www.w3.org/2000/svg">
<path d="M44.4005 5.28263C44.3127 4.96455 44.0605 4.71933 43.7424 4.63942L40.618 3.85909L39.8377 0.734674C39.757 0.415024 39.5102 0.162752 39.1944 0.0750048C38.8818 -0.0111753 38.5379 0.0750048 38.3044 0.309258L31.9059 6.70774C31.7359 6.87931 31.6388 7.11122 31.6388 7.35409V11.5456L31.0849 12.0995C27.8398 9.15995 23.5535 7.35409 18.8418 7.35409C8.76188 7.35409 0.561462 15.5553 0.561462 25.6352C0.561462 35.7152 8.76188 43.9156 18.8418 43.9156C28.9218 43.9156 37.1222 35.7152 37.1222 25.6352C37.1222 20.9243 35.314 16.6373 32.3768 13.393L32.9307 12.8391H37.1222C37.3651 12.8391 37.5978 12.7419 37.7693 12.5719L44.1678 6.17342C44.3981 5.93917 44.489 5.59915 44.4005 5.28263ZM35.2944 25.6344C35.2944 34.7053 27.9142 42.087 18.8418 42.087C9.7694 42.087 2.38925 34.7053 2.38925 25.6344C2.38925 16.5636 9.76862 9.18189 18.8418 9.18189C23.0498 9.18189 26.8816 10.7833 29.7937 13.3906L27.2091 15.9752C24.9622 14.026 22.0414 12.8383 18.8418 12.8383C11.7876 12.8383 6.04563 18.5787 6.04563 25.6344C6.04563 32.691 11.7876 38.4306 18.8418 38.4306C25.896 38.4306 31.638 32.6902 31.638 25.6344C31.638 22.4356 30.4495 19.5141 28.501 17.2671L31.0857 14.6825C33.693 17.5946 35.2936 21.4257 35.2944 25.6344ZM24.326 25.6344C24.326 28.6578 21.8652 31.1186 18.8418 31.1186C15.8185 31.1186 13.3576 28.6578 13.3576 25.6344C13.3576 22.6111 15.8185 20.1503 18.8418 20.1503C20.0248 20.1503 21.1138 20.5342 22.0101 21.1742L19.2884 23.896C19.1419 23.8599 18.9993 23.8066 18.8418 23.8066C17.8327 23.8066 17.014 24.6277 17.014 25.6344C17.014 26.6412 17.8327 27.4622 18.8418 27.4622C19.8509 27.4622 20.6696 26.6412 20.6696 25.6344C20.6696 25.477 20.6163 25.3344 20.5803 25.1887L23.302 22.4669C23.9421 23.3624 24.326 24.4522 24.326 25.6344ZM23.302 19.8815C22.0642 18.9202 20.5294 18.3217 18.8418 18.3217C14.8094 18.3217 11.5298 21.6012 11.5298 25.6337C11.5298 29.6661 14.8094 32.9457 18.8418 32.9457C22.8743 32.9457 26.1538 29.6661 26.1538 25.6337C26.1538 23.9485 25.556 22.4129 24.5947 21.1735L27.2107 18.5575C28.8285 20.4699 29.8102 22.9378 29.8102 25.6344C29.8102 31.6835 24.8909 36.6028 18.8418 36.6028C12.7928 36.6028 7.87344 31.6835 7.87344 25.6344C7.87344 19.5854 12.7928 14.6661 18.8418 14.6661C21.5385 14.6661 24.0064 15.6477 25.9164 17.2671L23.302 19.8815ZM36.7438 11.0097H33.4658V7.7325L38.4549 2.74345L38.9759 4.83293C39.0597 5.15963 39.3143 5.41582 39.6434 5.49808L41.7344 6.02065L36.7438 11.0097Z" fill="black"/>
</svg>
