<svg width="33" height="44" viewBox="0 0 33 44" fill="none" xmlns="http://www.w3.org/2000/svg">
<path d="M23.1109 11.9079C23.5418 11.4237 23.8106 10.793 23.8106 10.0965C23.8106 8.93225 23.0772 7.94117 22.0501 7.54474L23.154 3.50832C23.3804 2.67471 23.2104 1.80428 22.6879 1.11875C22.1669 0.434783 21.3716 0.0422668 20.5083 0.0422668H12.4879C11.6245 0.0422668 10.8301 0.435567 10.3068 1.11875C9.78418 1.80428 9.61418 2.67471 9.8406 3.50832L10.9445 7.54474C9.91893 7.94195 9.18561 8.93225 9.18561 10.0965C9.18561 10.793 9.45434 11.4237 9.88603 11.9079C4.18788 16.6846 0.0449219 27.0812 0.0449219 33.8614C0.0449219 43.9156 9.16681 43.9156 16.4977 43.9156C23.8286 43.9156 32.9505 43.9156 32.9505 33.8614C32.9513 27.0812 28.8091 16.6846 23.1109 11.9079ZM11.9285 11.0108C11.4255 11.0108 11.0142 10.601 11.0142 10.0965C11.0142 9.59193 11.4255 9.18296 11.9285 9.18296H21.0692C21.5714 9.18296 21.9827 9.59271 21.9827 10.0965C21.9827 10.601 21.5714 11.0108 21.0684 11.0108H11.9285ZM11.7601 2.22892C11.9356 2.0025 12.1988 1.87088 12.4879 1.87088H20.5114C20.7981 1.87088 21.0637 2.0025 21.2369 2.22892C21.4124 2.45769 21.4688 2.74836 21.392 3.0257L20.2074 7.35435H12.7888L11.6042 3.0257C11.5282 2.74757 11.5846 2.45691 11.7601 2.22892ZM16.4985 42.0885C7.93364 42.0885 1.87352 41.4978 1.87352 33.8621C1.87352 27.2332 6.05802 16.9542 11.6974 12.8151C11.7742 12.8222 11.8494 12.8386 11.9277 12.8386H21.0684C21.1468 12.8386 21.222 12.8222 21.2988 12.8151C26.9382 16.9542 31.1227 27.2332 31.1227 33.8621C31.1227 41.497 25.0626 42.0877 16.4985 42.0885Z" fill="black"/>
<path d="M16.4985 23.8064C18.5911 23.8064 20.1549 24.7716 20.1549 25.6342C20.1549 26.1387 20.5647 26.5485 21.0692 26.5485C21.5738 26.5485 21.9827 26.1387 21.9827 25.635C21.9827 23.7938 20.0358 22.3225 17.4128 22.0389V21.0642C17.4128 20.5597 17.003 20.1499 16.4985 20.1499C15.9939 20.1499 15.5842 20.5597 15.5842 21.0642V22.0389C12.9611 22.3225 11.0142 23.7938 11.0142 25.635C11.0142 27.6861 13.4218 29.2914 16.4985 29.2914C18.5911 29.2914 20.1549 30.2566 20.1549 31.1192C20.1549 31.9818 18.5919 32.947 16.4985 32.947C14.4051 32.947 12.842 31.9818 12.842 31.1192C12.842 30.6147 12.4323 30.2049 11.9277 30.2049C11.4232 30.2049 11.0142 30.6147 11.0142 31.1192C11.0142 32.9604 12.9611 34.4317 15.5842 34.7153V35.6892C15.5842 36.1937 15.9939 36.6035 16.4985 36.6035C17.003 36.6035 17.4128 36.1937 17.4128 35.6892V34.7145C20.0358 34.4309 21.9827 32.9596 21.9827 31.1192C21.9827 29.0681 19.5752 27.4628 16.4985 27.4628C14.4051 27.4628 12.842 26.4976 12.842 25.635C12.842 24.7716 14.4051 23.8064 16.4985 23.8064Z" fill="black"/>
<path d="M9.18797 37.9839C6.85872 37.401 5.78067 36.1452 5.58167 33.7846C5.54171 33.28 5.07868 32.9 4.5945 32.9494C4.09386 32.9917 3.71859 33.4336 3.7609 33.9366C4.02414 37.0806 5.65296 38.9837 8.74608 39.7569C8.82129 39.7749 8.89416 39.7844 8.96702 39.7844C9.37834 39.7844 9.75128 39.5086 9.85391 39.0918C9.97535 38.6037 9.6792 38.1062 9.18797 37.9839Z" fill="black"/>
<path d="M5.78616 30.2049C5.78616 30.7095 5.37718 31.1192 4.87263 31.1192C4.36729 31.1192 3.95833 30.7095 3.95833 30.2049C3.95833 29.7004 4.36729 29.2906 4.87263 29.2906C5.37718 29.2906 5.78616 29.7004 5.78616 30.2049Z" fill="black"/>
</svg>
