<svg width="46" height="44" viewBox="0 0 46 44" fill="none" xmlns="http://www.w3.org/2000/svg">
<path d="M21.1059 20.2486L20.4502 20.5284L18.5248 16.0074C18.0712 14.9416 17.0259 14.2524 15.8634 14.2524C15.4744 14.2524 15.0939 14.3301 14.7377 14.4835C14.0288 14.7837 13.4804 15.3452 13.1915 16.0614C12.963 16.6281 12.9275 17.2364 13.0677 17.8176C11.1087 20.1071 9.38005 21.7686 5.12892 23.4169C3.1699 24.1766 1.68417 25.5596 0.94427 27.3132C0.277439 28.8938 0.296529 30.6704 0.998249 32.3181C1.69931 33.9644 2.96649 35.2092 4.56675 35.8227C5.33364 36.117 6.14793 36.2631 6.97867 36.2631C7.48883 36.2631 8.00558 36.2026 8.52167 36.0926L10.9902 41.8907C11.3378 42.7063 11.9848 43.3396 12.813 43.6727C13.2171 43.8353 13.6391 43.9156 14.0604 43.9156C14.5021 43.9156 14.9425 43.8267 15.3592 43.649C17.0457 42.9301 17.8343 40.9718 17.1167 39.2833L14.8319 33.9197C16.5809 33.5556 18.0996 33.5642 19.8117 33.6623C20.3364 34.4871 21.2494 35.0012 22.2519 35.0012C22.6403 35.0012 23.0188 34.9242 23.3769 34.7715C24.8409 34.1468 25.5255 32.4458 24.9028 30.9811L22.978 26.4621L23.6356 26.181C24.4243 25.8453 25.0378 25.2186 25.3597 24.4175C25.6829 23.6164 25.675 22.7409 25.3393 21.9509C24.6382 20.3151 22.7384 19.5515 21.1059 20.2486ZM5.08811 34.4654C3.84002 33.9868 2.88947 33.0475 2.33586 31.7487C1.78225 30.4486 1.76448 29.1097 2.28452 27.8787C2.86972 26.4917 4.06647 25.3891 5.65488 24.773C5.7082 24.7526 5.75757 24.7308 5.80958 24.7104L9.81715 34.1185C9.76646 34.1422 9.71709 34.1639 9.66443 34.1876C8.1188 34.9071 6.49352 35.0058 5.08811 34.4654ZM15.7785 39.8527C16.1827 40.8039 15.7377 41.9065 14.7878 42.3107C14.3303 42.5069 13.8214 42.5115 13.3554 42.3232C12.888 42.1356 12.5227 41.7801 12.3278 41.3213L9.91523 35.6529C10.0357 35.6035 10.1575 35.5621 10.2766 35.5068C11.4411 34.965 12.4654 34.5714 13.4074 34.285L15.7785 39.8527ZM11.1515 33.5438L7.1485 24.1456C10.3266 22.7106 12.0329 21.186 13.6674 19.3435L19.1317 32.1706C16.6685 32.0732 14.3869 32.2463 11.1515 33.5438ZM22.8049 33.4319C22.0946 33.736 21.2257 33.3779 20.9255 32.6742L14.5482 17.7018C14.2394 16.9731 14.5791 16.1298 15.3078 15.8198C15.4842 15.7441 15.6718 15.7052 15.8634 15.7052C16.442 15.7052 16.9621 16.0469 17.1872 16.5755L23.5645 31.5479C23.8733 32.2766 23.5329 33.1218 22.8049 33.4319ZM24.0089 23.8731C23.8311 24.3128 23.4961 24.6578 23.0636 24.8414L22.4066 25.1225L21.0197 21.866L21.6766 21.5849C22.5725 21.2012 23.6152 21.6218 23.999 22.521C24.1833 22.9528 24.1873 23.4321 24.0089 23.8731Z" fill="black"/>
<path d="M43.6347 8.21671H42.3609V2.37124C42.3609 1.08629 41.3162 0.0422668 40.0319 0.0422668H21.8596C20.5747 0.0422668 19.5306 1.08695 19.5306 2.37124V13.3763C19.5306 14.6612 20.5753 15.7059 21.8596 15.7059H25.9876V18.5516C25.9876 19.4014 26.4195 19.7306 26.6769 19.8504C26.7848 19.9004 26.9395 19.9504 27.137 19.9504C27.4457 19.9504 27.8585 19.83 28.3614 19.4067L30.3922 17.3759V18.1738C30.3922 19.2211 31.244 20.0729 32.2906 20.0729H36.0889L38.7871 22.7705C39.1156 23.0443 39.4441 23.1832 39.762 23.1832C40.2656 23.1832 40.8093 22.8008 40.8093 21.9602V20.0716H43.636C44.6846 20.0716 45.5377 19.2198 45.5377 18.1724L45.5371 10.1178C45.5364 9.06918 44.6833 8.21605 43.6347 8.21671ZM27.4405 18.2732V14.9785C27.4405 14.5763 27.1153 14.2511 26.7131 14.2511H21.8583C21.3764 14.2511 20.9834 13.8581 20.9834 13.3756V2.37124C20.9834 1.88938 21.3764 1.49639 21.8583 1.49639H40.0313C40.5131 1.49639 40.9061 1.88938 40.9061 2.37124V8.21605H32.2893C31.2433 8.21605 30.3908 9.06918 30.3908 10.1178V15.3188L27.4405 18.2732ZM44.0816 18.1738C44.0816 18.4193 43.8808 18.6188 43.634 18.6188H40.0806C39.6784 18.6188 39.3532 18.9439 39.3532 19.3461L39.3513 21.2834L36.9025 18.832C36.7656 18.6951 36.5819 18.6194 36.3884 18.6194H32.2893C32.049 18.6194 31.845 18.416 31.845 18.1744L31.8456 10.1185C31.8456 9.87227 32.0451 9.67084 32.29 9.67084H43.6347C43.8809 9.67084 44.0823 9.87161 44.0823 10.1185L44.0816 18.1738Z" fill="black"/>
<path d="M41.5519 13.4171C41.1497 13.4171 40.8245 13.7436 40.8245 14.1458C40.8245 14.548 41.1497 14.8732 41.5519 14.8732C41.9541 14.8732 42.2793 14.548 42.2793 14.1458V14.1432C42.2793 13.7403 41.9534 13.4171 41.5519 13.4171Z" fill="black"/>
<path d="M37.9636 13.4171C37.5614 13.4171 37.2362 13.7436 37.2362 14.1458C37.2362 14.548 37.5614 14.8732 37.9636 14.8732C38.3658 14.8732 38.691 14.548 38.691 14.1458V14.1432C38.691 13.7403 38.3652 13.4171 37.9636 13.4171Z" fill="black"/>
<path d="M34.3721 13.4171C33.9699 13.4171 33.6447 13.7436 33.6447 14.1458C33.6447 14.548 33.9699 14.8732 34.3721 14.8732C34.7743 14.8732 35.0995 14.548 35.0995 14.1458V14.1432C35.0988 13.7403 34.7743 13.4171 34.3721 13.4171Z" fill="black"/>
</svg>
