<svg width="31" height="31" viewBox="0 0 31 31" fill="none" xmlns="http://www.w3.org/2000/svg">
<path d="M26.7846 30.3186H3.72645C1.76856 30.3186 0.175049 28.7251 0.175049 26.7672V3.70789C0.175049 1.74889 1.76856 0.15537 3.72645 0.156495H26.7858C28.7436 0.156495 30.3372 1.75001 30.3372 3.70789C30.3372 4.05538 30.0549 4.33765 29.7074 4.33765C29.3588 4.33765 29.0776 4.05538 29.0776 3.70789C29.0776 2.44387 28.0498 1.41601 26.7858 1.41601H3.72645C2.46242 1.41601 1.43457 2.44387 1.43457 3.70789V26.7661C1.43457 28.0301 2.46242 29.058 3.72645 29.058H26.7846C28.0487 29.058 29.0765 28.0301 29.0765 26.7661V6.48783H4.00084C3.65222 6.48783 3.37108 6.20556 3.37108 5.85807C3.37108 5.51058 3.65334 5.22831 4.00084 5.22831H29.7063C30.0549 5.22831 30.336 5.51058 30.336 5.85807V26.7672C30.336 28.7251 28.7425 30.3186 26.7846 30.3186Z" fill="white"/>
<path d="M3.37107 3.34576C3.37107 2.99827 3.65334 2.71601 4.00082 2.71601H5.36719C5.7158 2.71601 5.99694 2.99827 5.99694 3.34576C5.99694 3.69326 5.71467 3.97552 5.36719 3.97552H4.00082C3.65221 3.97552 3.37107 3.69326 3.37107 3.34576Z" fill="white"/>
<path d="M7.7704 2.71601C7.4229 2.71601 7.14063 2.99827 7.14063 3.34576C7.14063 3.69326 7.42177 3.97552 7.7704 3.97552H9.13562C9.48311 3.97552 9.76538 3.69326 9.76538 3.34576C9.76538 2.99827 9.48425 2.71601 9.13562 2.71601H7.7704Z" fill="white"/>
<path d="M25.443 3.34576C25.443 2.99827 25.7253 2.71601 26.0728 2.71601H27.438C27.7866 2.71601 28.0678 2.99827 28.0678 3.34576C28.0678 3.69326 27.7855 3.97552 27.438 3.97552H26.0728C25.7242 3.97552 25.443 3.69326 25.443 3.34576Z" fill="white"/>
<path fill-rule="evenodd" clip-rule="evenodd" d="M18.4763 17.6233C18.4763 19.3664 17.0582 20.7845 15.3151 20.7845C13.5721 20.7845 12.1551 19.3664 12.154 17.6233C12.154 15.8802 13.5721 14.4622 15.3151 14.4622C17.0582 14.4622 18.4763 15.8802 18.4763 17.6233ZM17.2168 17.6244C17.2168 16.5763 16.3632 15.7228 15.3151 15.7228C14.267 15.7228 13.4146 16.5752 13.4146 17.6244C13.4146 18.6725 14.267 19.525 15.3151 19.525C16.3632 19.525 17.2168 18.6725 17.2168 17.6244Z" fill="white"/>
<path fill-rule="evenodd" clip-rule="evenodd" d="M7.00344 15.1639C6.07342 15.1639 5.31659 15.9207 5.31659 16.8508V18.3993C5.31659 19.3293 6.07342 20.0861 7.00344 20.0861H8.26972C8.36192 20.3538 8.46988 20.6158 8.59246 20.8688L7.69843 21.7629C7.04055 22.4207 7.04055 23.4902 7.69843 24.1481L8.79264 25.2423C9.43027 25.8799 10.5413 25.8788 11.1778 25.2423L12.0719 24.3483C12.3249 24.4697 12.5869 24.5777 12.8546 24.671V25.9373C12.8546 26.8673 13.6114 27.6241 14.5414 27.6241H16.09C17.02 27.6241 17.7768 26.8673 17.7768 25.9373V24.671C18.0445 24.5777 18.3065 24.4697 18.5595 24.3471L19.4547 25.2412C20.0912 25.8777 21.2023 25.8777 21.8399 25.2412L22.9341 24.147C23.592 23.4891 23.592 22.4196 22.9341 21.7618L22.0401 20.8677C22.1615 20.6147 22.2695 20.3538 22.3628 20.085H23.6302C24.5602 20.085 25.3171 19.3282 25.3171 18.3982V16.8496C25.3171 15.9196 24.5602 15.1628 23.6302 15.1628H22.3628C22.2695 14.894 22.1615 14.6331 22.0401 14.3801L22.9341 13.486C23.592 12.8282 23.592 11.7587 22.9341 11.1008L21.8399 10.0066C21.182 9.34874 20.1126 9.34874 19.4547 10.0066L18.5595 10.9006C18.3065 10.7792 18.0445 10.6712 17.7768 10.5779V9.3105C17.7768 8.38048 17.02 7.62365 16.09 7.62365H14.5414C13.6114 7.62365 12.8546 8.38048 12.8546 9.3105V10.5768C12.5869 10.6701 12.3249 10.7781 12.0719 10.8995L11.1767 10.0055C10.5189 9.34761 9.44939 9.34874 8.79151 10.0055L7.6973 11.0997C7.03943 11.7576 7.03943 12.827 7.6973 13.4849L8.59134 14.3789C8.46875 14.632 8.3608 14.894 8.26858 15.1616L7.00344 15.1639ZM9.80924 13.8167L8.58796 12.5954C8.42152 12.4289 8.42152 12.1579 8.58796 11.9915L9.68217 10.8973C9.8486 10.7308 10.1185 10.7297 10.2872 10.8973L11.5085 12.1186C11.7086 12.3187 12.019 12.3615 12.2642 12.2209C12.6949 11.9769 13.1627 11.7834 13.653 11.6474C13.9252 11.572 14.1141 11.3235 14.1141 11.0412V9.31163C14.1141 9.07659 14.3064 8.88429 14.5414 8.88429H16.09C16.325 8.88429 16.5173 9.07547 16.5173 9.31163V11.0412C16.5173 11.3246 16.7062 11.572 16.9784 11.6474C17.4676 11.7834 17.9354 11.9769 18.3683 12.2209C18.6135 12.3592 18.9228 12.3176 19.1229 12.1186L20.3442 10.8973C20.5107 10.7308 20.7817 10.7308 20.9481 10.8973L22.0423 11.9915C22.2088 12.1579 22.2088 12.4289 22.0423 12.5954L20.821 13.8167C20.6209 14.0168 20.5781 14.3261 20.7187 14.5724C20.9627 15.0031 21.155 15.4698 21.2922 15.9623C21.3676 16.2356 21.6161 16.4234 21.8995 16.4234H23.6291C23.8641 16.4234 24.0564 16.6146 24.0564 16.8508V18.3993C24.0564 18.6343 23.8653 18.8266 23.6291 18.8266H21.8995C21.6161 18.8266 21.3687 19.0156 21.2922 19.2877C21.1562 19.7791 20.9627 20.247 20.7187 20.6765C20.5793 20.9228 20.6209 21.2321 20.821 21.4323L22.0423 22.6535C22.2088 22.82 22.2088 23.091 22.0423 23.2586L20.9481 24.3528C20.7873 24.5147 20.505 24.5147 20.3442 24.3528L19.1229 23.1315C18.9228 22.9313 18.6124 22.8886 18.3672 23.0291C17.9354 23.2743 17.4676 23.4666 16.9784 23.6027C16.7051 23.6769 16.5162 23.9254 16.5162 24.2088V25.9384C16.5162 26.1734 16.325 26.3657 16.0888 26.3657H14.5403C14.3053 26.3657 14.113 26.1746 14.113 25.9384V24.2088C14.113 23.9254 13.924 23.6769 13.6519 23.6016C13.1616 23.4655 12.6938 23.2732 12.2631 23.028C12.1663 22.9729 12.0584 22.9459 11.9527 22.9459C11.7896 22.9459 11.6288 23.0089 11.5073 23.1304L10.2861 24.3516C10.1252 24.5125 9.84298 24.5136 9.68104 24.3516L8.58683 23.2574C8.4204 23.091 8.4204 22.82 8.58683 22.6524L9.80812 21.4311C10.0083 21.231 10.051 20.9217 9.91046 20.6765C9.6653 20.2436 9.47299 19.7758 9.33805 19.2877C9.26271 19.0144 9.01418 18.8255 8.73079 18.8255H7.00344C6.76841 18.8255 6.57611 18.6343 6.57611 18.3982V16.8496C6.57611 16.6146 6.76841 16.4223 7.00344 16.4223H8.73303C9.01643 16.4223 9.26495 16.2334 9.3403 15.9601C9.47525 15.472 9.66755 15.0042 9.91271 14.5701C10.0522 14.3261 10.0094 14.0168 9.80924 13.8167Z" fill="white"/>
</svg>
