<svg width="31" height="31" viewBox="0 0 31 31" fill="none" xmlns="http://www.w3.org/2000/svg">
<path d="M29.7069 16.1428C30.0544 16.1428 30.3366 15.8605 30.3366 15.513V5.85855C30.3366 5.51106 30.0555 5.22879 29.7069 5.22879H4.00144C3.65395 5.22879 3.37168 5.51106 3.37168 5.85855C3.37168 6.20604 3.65282 6.48831 4.00144 6.48831H29.0771V15.513C29.0771 15.8605 29.3594 16.1428 29.7069 16.1428Z" fill="white"/>
<path d="M3.72593 30.318H15.2562C15.6036 30.318 15.8859 30.0357 15.8859 29.6882C15.8859 29.3407 15.6048 29.0585 15.2562 29.0585H3.72593C2.46191 29.0585 1.43405 28.0306 1.43405 26.7666V3.70838C1.43405 2.44436 2.46191 1.4165 3.72593 1.4165H26.7853C28.0493 1.4165 29.0771 2.44436 29.0771 3.70838C29.0771 4.05587 29.3583 4.33814 29.7069 4.33814C30.0544 4.33814 30.3366 4.05587 30.3366 3.70838C30.3366 1.7505 28.7431 0.156982 26.7853 0.156982H3.72706C1.76918 0.156982 0.17566 1.7505 0.17566 3.70838V26.7677C0.174535 28.7256 1.76918 30.3191 3.72593 30.318Z" fill="white"/>
<path d="M4.00144 3.97489H5.36666C5.71416 3.97489 5.99643 3.69263 5.99643 3.34513C5.99643 2.99764 5.71528 2.71538 5.36666 2.71538H4.00144C3.65395 2.71538 3.37168 2.99764 3.37168 3.34513C3.37168 3.69263 3.65395 3.97489 4.00144 3.97489Z" fill="white"/>
<path d="M9.13622 3.97489C9.48371 3.97489 9.76597 3.69263 9.76597 3.34513C9.76597 2.99764 9.48483 2.71538 9.13622 2.71538H7.77098C7.42349 2.71538 7.14123 2.99764 7.14123 3.34513C7.14123 3.69263 7.42237 3.97489 7.77098 3.97489H9.13622Z" fill="white"/>
<path d="M27.4386 3.97489C27.7861 3.97489 28.0684 3.69263 28.0684 3.34513C28.0684 2.99764 27.7872 2.71538 27.4386 2.71538H26.0734C25.7259 2.71538 25.4436 2.99764 25.4436 3.34513C25.4436 3.69263 25.7248 3.97489 26.0734 3.97489H27.4386Z" fill="white"/>
<path d="M7.05352 10.2849C6.80724 10.0386 6.40915 10.0386 6.16287 10.2849L3.55611 12.8916C3.30983 13.1379 3.30983 13.536 3.55611 13.7823L6.14262 16.3688C6.2652 16.4914 6.42714 16.5532 6.58796 16.5532C6.74877 16.5532 6.91071 16.4914 7.03328 16.3688C7.27956 16.1225 7.27956 15.7244 7.03328 15.4781L4.8921 13.3369L7.05352 11.1755C7.29981 10.9304 7.29981 10.5311 7.05352 10.2849Z" fill="white"/>
<path d="M10.8816 16.3677C11.0041 16.4902 11.1661 16.5521 11.3269 16.5521C11.4877 16.5521 11.6496 16.4902 11.7722 16.3677L14.3587 13.7812C14.605 13.5349 14.605 13.1368 14.3587 12.8905L11.752 10.2837C11.5057 10.0375 11.1076 10.0375 10.8613 10.2837C10.615 10.53 10.615 10.9281 10.8613 11.1744L13.0227 13.3358L10.8816 15.477C10.6353 15.7233 10.6353 16.1214 10.8816 16.3677Z" fill="white"/>
<path d="M27.2216 24.6962C27.2767 24.5759 27.3262 24.4533 27.3723 24.3296H28.1797C28.9534 24.3296 29.582 23.701 29.582 22.9273V21.796C29.582 21.0223 28.9534 20.3936 28.1797 20.3936H27.3723C27.3262 20.2688 27.2756 20.1462 27.2216 20.0259L27.7917 19.4557C28.3383 18.9092 28.3383 18.0197 27.7917 17.4731L26.9922 16.6735C26.4636 16.1439 25.5381 16.1439 25.0095 16.6735L24.4394 17.2437C24.3191 17.1897 24.1965 17.1391 24.0717 17.093V16.2867C24.0717 15.513 23.443 14.8844 22.6693 14.8844H21.538C20.7643 14.8844 20.1357 15.513 20.1357 16.2867V17.093C20.0108 17.1391 19.8894 17.1897 19.7679 17.2437L19.1989 16.6735C18.6512 16.127 17.7628 16.127 17.2151 16.6735L16.4156 17.4742C15.869 18.0208 15.869 18.9103 16.4156 19.4569L16.9857 20.027C16.9306 20.1473 16.8811 20.2699 16.835 20.3936H16.0276C15.2539 20.3936 14.6253 21.0223 14.6253 21.796V22.9273C14.6253 23.701 15.2539 24.3296 16.0276 24.3296H16.835C16.8811 24.4545 16.9317 24.5759 16.9857 24.6962L16.4156 25.2664C15.869 25.8129 15.869 26.7025 16.4156 27.249L17.2151 28.0497C17.7628 28.5962 18.6512 28.5962 19.1989 28.0497L19.7679 27.4795C19.8882 27.5347 20.0108 27.5841 20.1357 27.6302V28.4366C20.1357 29.2103 20.7643 29.8389 21.538 29.8389H22.6693C23.443 29.8389 24.0717 29.2103 24.0717 28.4366V27.6302C24.1965 27.5841 24.3191 27.5335 24.4394 27.4795L25.0095 28.0486C25.5381 28.5783 26.4636 28.5783 26.9922 28.0486L27.7917 27.249C28.3383 26.7025 28.3383 25.8129 27.7917 25.2664L27.2216 24.6962ZM26.0082 25.2641L26.9011 26.1571C26.9562 26.2133 26.9562 26.3032 26.9011 26.3595L26.1015 27.1602C26.0329 27.2288 25.9688 27.2288 25.9002 27.1602L25.0073 26.2673C24.8071 26.066 24.4967 26.0255 24.2527 26.1649C23.9491 26.337 23.6207 26.4719 23.2743 26.5686C23.0022 26.644 22.8133 26.8925 22.8133 27.1748V28.4388C22.8133 28.5175 22.7492 28.5816 22.6704 28.5816H21.5391C21.4604 28.5816 21.3963 28.5175 21.3963 28.4388V27.1748C21.3963 26.8914 21.2074 26.644 20.9352 26.5686C20.59 26.4719 20.2616 26.337 19.9568 26.1649C19.8601 26.1098 19.7533 26.0828 19.6465 26.0828C19.4834 26.0828 19.3226 26.1458 19.2011 26.2673L18.3094 27.159C18.2542 27.2153 18.1632 27.2153 18.1069 27.159L17.3074 26.3595C17.2522 26.3032 17.2522 26.2133 17.3074 26.1571L18.2003 25.2641C18.4004 25.064 18.4432 24.7547 18.3026 24.5096C18.1305 24.2048 17.9956 23.8764 17.9 23.5323C17.8247 23.259 17.5761 23.0701 17.2927 23.0701H16.0287C15.95 23.0701 15.8859 23.006 15.8859 22.9273V21.796C15.8859 21.7172 15.95 21.6531 16.0287 21.6531H17.2927C17.5761 21.6531 17.8247 21.4642 17.9 21.1909C17.9956 20.8457 18.1305 20.5173 18.3026 20.2137C18.4421 19.9674 18.3993 19.6582 18.2003 19.4591L17.3074 18.5673C17.2522 18.5111 17.2522 18.4211 17.3074 18.3649L18.1069 17.5653C18.162 17.5102 18.2542 17.5091 18.3094 17.5653L19.2011 18.4582C19.4013 18.6584 19.7106 18.7 19.9557 18.5606C20.2605 18.3885 20.5889 18.2524 20.9341 18.1569C21.2062 18.0815 21.3952 17.833 21.3952 17.5496V16.2856C21.3952 16.2069 21.4593 16.1427 21.538 16.1427H22.6693C22.748 16.1427 22.8121 16.2069 22.8121 16.2856V17.5496C22.8121 17.833 23.0011 18.0815 23.2732 18.1569C23.6173 18.2524 23.9468 18.3874 24.2516 18.5606C24.4979 18.6989 24.806 18.6584 25.0062 18.4582L25.8991 17.5653C25.9677 17.4967 26.0318 17.4967 26.1004 17.5653L26.8999 18.3649C26.9551 18.4211 26.9551 18.5111 26.8999 18.5673L26.007 19.4602C25.8069 19.6604 25.7641 19.9697 25.9047 20.2159C26.0756 20.5173 26.2117 20.8457 26.3084 21.1932C26.3838 21.4653 26.6323 21.6543 26.9146 21.6543H28.1786C28.2573 21.6543 28.3214 21.7184 28.3214 21.7971V22.9284C28.3214 23.0071 28.2573 23.0712 28.1786 23.0712H26.9146C26.6312 23.0712 26.3838 23.259 26.3084 23.5323C26.2117 23.8798 26.0756 24.2082 25.9047 24.5096C25.7664 24.7547 25.808 25.064 26.0082 25.2641Z" fill="white"/>
<path d="M22.1036 19.882C20.7362 19.882 19.624 20.9942 19.624 22.3616C19.624 23.7291 20.7362 24.8413 22.1036 24.8413C23.4711 24.8413 24.5833 23.7291 24.5833 22.3616C24.5833 20.9942 23.4711 19.882 22.1036 19.882ZM22.1036 23.5818C21.4312 23.5818 20.8835 23.0341 20.8835 22.3616C20.8835 21.6891 21.4312 21.1415 22.1036 21.1415C22.7761 21.1415 23.3238 21.6891 23.3238 22.3616C23.3238 23.0341 22.7773 23.5818 22.1036 23.5818Z" fill="white"/>
</svg>
