<svg width="31" height="32" viewBox="0 0 31 32" fill="none" xmlns="http://www.w3.org/2000/svg">
<path d="M0.887989 31.4782C0.534874 31.4782 0.248108 31.1915 0.248108 30.8383V1.63549C0.248108 1.28237 0.534874 0.995605 0.887989 0.995605C1.2411 0.995605 1.52787 1.28237 1.52787 1.63549V30.1996H29.6242C29.7928 30.1996 29.957 30.2682 30.0762 30.3863C30.1977 30.5077 30.264 30.6674 30.264 30.8395C30.264 31.0104 30.1977 31.1701 30.0762 31.2915C29.957 31.4107 29.7928 31.4793 29.6242 31.4793H0.887989V31.4782ZM4.10201 26.4975C3.97156 26.4975 3.84673 26.4593 3.7399 26.385L3.64094 26.3176C3.45426 26.1061 3.42614 25.7901 3.58246 25.5461L7.69277 19.5803C7.79173 19.4363 7.94804 19.3385 8.12123 19.3115C8.15159 19.307 8.18421 19.3047 8.21569 19.3047C8.35739 19.3047 8.49796 19.3531 8.60929 19.4397L12.1337 22.1983L17.3764 14.3521C17.4855 14.1891 17.6688 14.0834 17.8645 14.071C17.8791 14.0699 17.8938 14.0699 17.9072 14.0699C18.0906 14.0699 18.2649 14.1486 18.3863 14.2858L21.4485 17.7461L27.4279 8.69329L27.4324 8.6843C27.5201 8.53135 27.6685 8.42002 27.8395 8.37841C27.8889 8.36604 27.9384 8.36042 27.989 8.36042C28.115 8.36042 28.2364 8.39753 28.341 8.46613C28.4883 8.56284 28.5895 8.71916 28.6188 8.89234C28.648 9.06553 28.6042 9.24658 28.4973 9.38715L28.4917 9.39503L22.0457 19.1451C21.9366 19.3115 21.7555 19.4195 21.5587 19.4341C21.5452 19.4352 21.5306 19.4352 21.516 19.4352C21.3327 19.4352 21.1584 19.3565 21.0369 19.2193L17.977 15.7511L12.8017 23.4735C12.7084 23.6062 12.5565 23.7018 12.3901 23.7299C12.3597 23.7344 12.3249 23.7378 12.2911 23.7378C12.1562 23.7378 12.0224 23.6939 11.9133 23.6141L8.33715 20.842L4.62831 26.2209C4.50911 26.3929 4.31343 26.4952 4.10314 26.4952H4.10201V26.4975Z" fill="white"/>
</svg>
