<svg width="38" height="37" viewBox="0 0 38 37" fill="none" xmlns="http://www.w3.org/2000/svg">
<path d="M33.9022 20.842C33.3324 20.842 32.775 20.6858 32.2887 20.3914C31.6259 19.9887 31.1396 19.3587 30.9191 18.615L30.8616 18.4191H26.0351C25.6557 18.4191 25.3461 18.1096 25.3461 17.7302C25.3461 17.3508 25.6557 17.0413 26.0351 17.0413H30.8616L30.9205 16.8454C31.1109 16.2058 31.5094 15.6347 32.0436 15.2361C32.5777 14.8376 33.2393 14.6184 33.9049 14.6171C34.6801 14.6171 35.4224 14.9047 35.9963 15.4265C36.5702 15.9483 36.9276 16.6605 37.0016 17.4316C37.0756 18.2027 36.8605 18.9697 36.3976 19.5915C35.9333 20.2133 35.2594 20.6365 34.4979 20.7845C34.3007 20.8228 34.1007 20.842 33.9022 20.842ZM33.9008 16.0004C33.4379 16.0017 33.0023 16.1825 32.6763 16.5099C32.3504 16.8372 32.1696 17.2727 32.171 17.7357C32.1723 18.1986 32.3517 18.6341 32.6791 18.9615C33.0064 19.2888 33.442 19.4682 33.9049 19.4682H34.1788V19.4422C34.5377 19.3847 34.8691 19.2162 35.1293 18.9546C35.4567 18.6273 35.6375 18.1931 35.6388 17.7302C35.6375 17.2659 35.4567 16.8304 35.128 16.5044C34.8006 16.1784 34.3665 15.999 33.9049 15.999H33.9008V16.0004Z" fill="white"/>
<path d="M26.0227 12.0572C25.8063 12.0572 25.6077 11.9586 25.4763 11.7888C25.3653 11.645 25.316 11.4587 25.3393 11.2793C25.364 11.0958 25.4571 10.9342 25.6036 10.8218L27.8197 9.12215L27.7457 8.93177C27.4266 8.10041 27.4786 7.17044 27.8909 6.38017C28.3018 5.5899 29.0332 5.01329 29.8974 4.7969C30.1439 4.73526 30.3973 4.70376 30.6507 4.70376C31.2821 4.70376 31.8916 4.89277 32.412 5.25024C33.1461 5.75426 33.631 6.55001 33.7392 7.43341C33.8487 8.31681 33.5734 9.20707 32.9845 9.87544C32.3956 10.5438 31.5464 10.9273 30.6562 10.9287C29.9919 10.9287 29.3591 10.7246 28.8209 10.337L28.6552 10.2178L26.4405 11.9175C26.3199 12.0079 26.1748 12.0572 26.0227 12.0572ZM29.2235 6.83215C29.0647 7.06635 28.9619 7.33754 28.9318 7.62379C28.8757 8.15657 29.0729 8.69483 29.4605 9.06326C29.7837 9.37142 30.2083 9.54125 30.6562 9.54125C30.7452 9.54125 30.8356 9.53441 30.9246 9.52071C31.4533 9.43716 31.9217 9.10708 32.1792 8.63731C32.4353 8.16753 32.4586 7.59503 32.2422 7.1047C32.0258 6.61575 31.5848 6.24732 31.0657 6.12132C30.9315 6.08845 30.7931 6.07201 30.6548 6.07201C30.3247 6.07201 30.0124 6.16104 29.7399 6.32813L28.9263 6.82941L29.2235 6.83215Z" fill="white"/>
<path d="M30.6534 30.7607C30.1508 30.7607 29.6495 30.6375 29.2044 30.4033C28.41 29.9855 27.8334 29.2473 27.6238 28.3749C27.4814 27.764 27.528 27.1299 27.758 26.5437L27.7772 26.4958V26.3081L25.6173 24.6495C25.468 24.5372 25.3722 24.3756 25.3461 24.1934C25.3201 24.0113 25.3667 23.8291 25.4776 23.6826C25.6091 23.5073 25.8104 23.4073 26.0296 23.4073C26.1789 23.4073 26.3227 23.4552 26.4418 23.5456L28.6552 25.2439L28.8209 25.1234C29.3564 24.7331 29.9905 24.5276 30.6534 24.5276C30.8835 24.5276 31.115 24.5536 31.3396 24.6043C32.2148 24.8015 32.9626 25.3672 33.3913 26.1561C33.82 26.945 33.8871 27.8791 33.5776 28.7214C33.268 29.5637 32.6092 30.2307 31.7724 30.5526C31.4149 30.6909 31.0383 30.7607 30.6534 30.7607ZM29.1701 26.756C28.9277 27.1518 28.8551 27.6175 28.9647 28.0681C29.0729 28.5187 29.3523 28.8994 29.7481 29.1405C30.0193 29.3062 30.3316 29.3939 30.6507 29.3939C30.789 29.3939 30.926 29.3774 31.0602 29.3446C31.6231 29.2076 32.0792 28.7995 32.2778 28.2557C32.4764 27.7106 32.3915 27.1066 32.0504 26.6382C31.7245 26.1931 31.2013 25.926 30.6507 25.926C30.6274 25.926 30.6027 25.926 30.5795 25.9274C30.0001 25.952 29.4728 26.2602 29.1701 26.756Z" fill="white"/>
<path d="M3.69522 20.842C2.92002 20.842 2.17768 20.5544 1.60381 20.0325C1.02994 19.5107 0.672471 18.7985 0.598512 18.0274C0.524552 17.2563 0.739582 16.4893 1.20251 15.8675C1.66681 15.2457 2.34067 14.8225 3.10217 14.6746C3.29803 14.6362 3.49799 14.6171 3.69659 14.6171C4.26635 14.6171 4.82378 14.7732 5.31 15.0677C5.97289 15.4703 6.45911 16.1004 6.67962 16.8441L6.73714 17.0399H11.5637C11.9431 17.0399 12.2526 17.3494 12.2526 17.7288C12.2526 18.1082 11.9431 18.4177 11.5637 18.4177H6.73851L6.67962 18.6136C6.48924 19.2518 6.08931 19.823 5.55516 20.2215C5.02238 20.6215 4.36085 20.842 3.69522 20.842ZM3.69385 15.9922C3.22955 15.9935 2.79538 16.1743 2.46804 16.503C2.1407 16.8304 1.96128 17.2673 1.96128 17.7302C1.96265 18.1945 2.14344 18.6287 2.47215 18.9546C2.79949 19.2806 3.23366 19.46 3.69659 19.46C4.16226 19.4587 4.5978 19.2779 4.92377 18.9505C5.25111 18.6232 5.43053 18.1877 5.43053 17.7247C5.43053 17.2618 5.24974 16.8263 4.9224 16.4989C4.59232 16.1729 4.15815 15.9922 3.69385 15.9922Z" fill="white"/>
<path d="M6.91108 30.7457C5.93455 30.7457 5.00184 30.2786 4.41564 29.498C3.81164 28.6926 3.63359 27.6394 3.93764 26.6807C4.2417 25.7219 4.99636 24.9645 5.95372 24.6564C6.26325 24.5564 6.58511 24.5057 6.90971 24.5057C7.57535 24.5057 8.23688 24.7248 8.7724 25.122L8.93812 25.2453L11.1555 23.5442C11.2761 23.4511 11.4212 23.4018 11.5733 23.4018C11.7897 23.4018 11.9883 23.499 12.1197 23.6702C12.2321 23.8168 12.2814 24.0044 12.2553 24.188C12.2293 24.3701 12.1293 24.5372 11.9814 24.6468L9.76263 26.3492L9.83248 26.5382C10.1831 27.4805 10.0557 28.542 9.49008 29.3747C8.92579 30.2074 7.98897 30.7197 6.9823 30.7429C6.96176 30.7457 6.93711 30.7457 6.91108 30.7457ZM6.94806 25.9109C6.47554 25.9109 6.01809 26.1068 5.69212 26.4492C5.32233 26.8368 5.15249 27.3846 5.23604 27.9133C5.31822 28.442 5.64829 28.9104 6.11944 29.1665C6.37282 29.3048 6.66044 29.3774 6.94943 29.3774C7.19322 29.3774 7.4288 29.3281 7.65068 29.2295C8.13963 29.0131 8.50806 28.5721 8.63406 28.0516C8.74226 27.6065 8.66693 27.1285 8.42725 26.7382C8.14785 26.2821 7.66437 25.9753 7.13159 25.9192C7.07133 25.9137 7.00833 25.9109 6.94806 25.9109Z" fill="white"/>
<path d="M11.5637 12.0559C11.4144 12.0559 11.2706 12.0079 11.1514 11.9175L8.94223 10.2192L8.7765 10.3384C8.23961 10.726 7.60548 10.93 6.94395 10.93C5.97563 10.9259 5.05114 10.463 4.46905 9.69191C3.88697 8.91945 3.69659 7.90319 3.95956 6.97322C4.22252 6.04325 4.91555 5.27626 5.81539 4.92153C6.17971 4.77772 6.5632 4.70513 6.95354 4.70513C7.52467 4.70513 8.08348 4.86127 8.57106 5.15847C9.18328 5.53923 9.64758 6.12679 9.87768 6.8116C10.1078 7.49641 10.0913 8.24559 9.83248 8.92082L9.75989 9.11256L11.9759 10.8123C12.2827 11.0424 12.3444 11.4752 12.1156 11.7792C11.9841 11.9545 11.7828 12.0559 11.5637 12.0559ZM6.94806 6.08297C6.8111 6.08297 6.67414 6.0994 6.54129 6.1309C6.09068 6.24047 5.70993 6.51714 5.46887 6.91296C5.22782 7.30741 5.15523 7.77308 5.26343 8.22368C5.373 8.67428 5.64966 9.05504 6.04548 9.29609C6.31667 9.46045 6.62894 9.5481 6.94669 9.5481C7.08366 9.5481 7.22199 9.53167 7.35484 9.50016C7.80407 9.3906 8.1862 9.11393 8.42725 8.71948C8.6683 8.32366 8.74226 7.85799 8.63269 7.40739C8.52449 6.95815 8.24646 6.5774 7.85064 6.33498C7.57946 6.17062 7.26718 6.08297 6.94806 6.08297Z" fill="white"/>
<path d="M18.7994 36.0584C18.5611 36.0557 18.3364 35.9256 18.2132 35.7188L14.7658 30.1472C14.6987 30.039 14.6645 29.913 14.6645 29.7842V2.04807C14.6645 1.80565 14.7932 1.57966 15.0001 1.45503C16.1505 0.771587 17.4626 0.411377 18.7994 0.411377C20.1361 0.411377 21.4482 0.771587 22.596 1.45503C22.8041 1.57829 22.9329 1.80565 22.9315 2.0467V29.7828C22.9343 29.9225 22.9 30.054 22.8302 30.1677L19.3869 35.7338C19.2609 35.9365 19.0418 36.0584 18.8021 36.0584H18.7994ZM18.7966 29.3651C18.0201 29.3651 17.2627 29.5185 16.5464 29.8198L16.2519 29.9445L18.7994 34.0602L21.3428 29.9445L21.0483 29.8198C20.3306 29.5185 19.5746 29.3651 18.7966 29.3651ZM18.7994 27.9763C19.6157 27.9763 20.4196 28.1146 21.1894 28.3858L21.555 28.5146V6.8883L21.4058 6.8116C20.6032 6.40209 19.702 6.18432 18.8007 6.18432C17.8995 6.18432 16.9983 6.40072 16.1957 6.8116L16.0464 6.8883V28.5146L16.4121 28.3858C17.1791 28.1133 17.9831 27.9763 18.7994 27.9763ZM18.7994 4.79963C19.6157 4.79963 20.4196 4.93934 21.188 5.21326L21.5537 5.34474V2.44526L21.3975 2.3713C20.5908 1.98781 19.6924 1.7851 18.7994 1.7851C17.9064 1.7851 17.0079 1.98781 16.2012 2.3713L16.0451 2.44526V5.34474L16.4108 5.21326C17.1791 4.93934 17.9831 4.79963 18.7994 4.79963Z" fill="white"/>
</svg>
