<svg width="45" height="44" viewBox="0 0 45 44" fill="none" xmlns="http://www.w3.org/2000/svg">
<path d="M41.6934 16.495H40.1594C39.3955 16.495 38.7625 16.0743 38.4703 15.3669C38.178 14.6594 38.3261 13.9151 38.8667 13.3745L39.9486 12.2902C40.4673 11.7747 40.7509 11.0876 40.7533 10.3527C40.7533 9.6217 40.4681 8.93069 39.951 8.41125L36.0627 4.52683C34.9932 3.45974 33.2532 3.45974 32.1853 4.52683L31.1033 5.61114C30.5619 6.15408 29.8145 6.29667 29.1125 6.00758C28.4051 5.71534 27.9828 5.0823 27.9828 4.31842V2.7844C27.9828 1.27231 26.7527 0.0422668 25.2406 0.0422668H19.7564C18.2443 0.0422668 17.0142 1.27231 17.0142 2.7844V4.31842C17.0142 5.0823 16.592 5.71534 15.8845 6.00758C15.177 6.30216 14.4351 6.15408 13.8937 5.61114L12.8094 4.52683C11.74 3.45896 10.0015 3.45896 8.93202 4.52683L5.04759 8.41282C4.52816 8.9299 4.24297 9.62092 4.24297 10.3542C4.24297 11.0876 4.52815 11.7747 5.04524 12.2918L6.12721 13.3761C6.66859 13.9174 6.81667 14.661 6.52365 15.3684C6.23142 16.0759 5.60073 16.4943 4.83685 16.4943H3.30281C1.79073 16.4943 0.560684 17.7243 0.560684 19.2364V24.7207C0.560684 26.2327 1.79073 27.4628 3.30281 27.4628H4.83685C5.60073 27.4628 6.23377 27.8835 6.526 28.591C6.81824 29.2984 6.67016 30.0427 6.12957 30.5833L5.04759 31.6676C4.52894 32.1832 4.24532 32.8703 4.24297 33.6052C4.24297 34.3361 4.52815 35.0271 5.04524 35.5466L8.93124 39.4334C10.0007 40.5004 11.7407 40.5004 12.8086 39.4334L13.8906 38.349C14.432 37.8061 15.1778 37.6619 15.8814 37.9526C16.5904 38.2433 17.0135 38.8755 17.0135 39.6394V41.1734C17.0135 42.6855 18.2435 43.9156 19.7556 43.9156H25.2399C26.7519 43.9156 27.982 42.6855 27.982 41.1734V39.6402C27.982 38.8763 28.4043 38.2433 29.1118 37.951C29.8177 37.6549 30.5612 37.8045 31.1025 38.3475L32.1869 39.4318C33.2579 40.5012 34.9964 40.4989 36.0642 39.4318L39.9502 35.545C40.4689 35.0279 40.7548 34.3369 40.7525 33.6036C40.7525 32.8703 40.4673 32.1832 39.9502 31.6661L38.8683 30.5818C38.3269 30.0404 38.1788 29.2969 38.4718 28.5894C38.7641 27.8819 39.3947 27.4636 40.1586 27.4636H41.6926C43.2047 27.4636 44.4348 26.2335 44.4348 24.7214V19.2372C44.4356 17.7251 43.2047 16.495 41.6934 16.495ZM42.6077 24.7214C42.6077 25.2244 42.198 25.6357 41.6934 25.6357H40.1594C38.6528 25.6357 37.3585 26.5007 36.7811 27.8913C36.2052 29.2843 36.5085 30.8105 37.574 31.8768L38.6583 32.9611C38.8299 33.1343 38.9255 33.3631 38.9255 33.6067C38.9255 33.8512 38.8306 34.0823 38.6583 34.2539L34.7723 38.1406C34.4174 38.4932 33.8361 38.4971 33.4796 38.1406L32.3976 37.0563C31.3337 35.9924 29.809 35.6868 28.4145 36.2635C27.0199 36.8409 26.155 38.1352 26.155 39.641V41.175C26.155 41.678 25.7452 42.0893 25.2406 42.0893H19.7564C19.2518 42.0893 18.8421 41.678 18.8421 41.175V39.6402C18.8421 38.1336 17.9779 36.8393 16.5841 36.2619C16.118 36.0699 15.6354 35.9751 15.1621 35.9751C14.2204 35.9751 13.3085 36.3465 12.601 37.0555L11.519 38.1399C11.1626 38.4924 10.5812 38.4924 10.2247 38.1399L6.33874 34.2531C6.1656 34.0799 6.07159 33.8488 6.07159 33.6059C6.07159 33.3631 6.16638 33.1343 6.33874 32.9604L7.42072 31.876C8.48623 30.8105 8.79022 29.2836 8.21359 27.8906C7.63774 26.4999 6.34345 25.635 4.83763 25.635H3.3036C2.79905 25.635 2.3893 25.2236 2.3893 24.7207V19.2364C2.3893 18.7334 2.79905 18.3221 3.3036 18.3221H4.83763C6.34424 18.3221 7.63851 17.4571 8.21593 16.0665C8.79177 14.6735 8.48858 13.1473 7.42307 12.081L6.33874 10.9967C6.16717 10.8235 6.07159 10.5948 6.07159 10.3511C6.07159 10.1067 6.16638 9.87555 6.33874 9.70397L10.2271 5.81798C10.582 5.46542 11.1633 5.4615 11.5198 5.81798L12.6018 6.90229C13.6673 7.96781 15.1919 8.26944 16.5849 7.69516C17.9779 7.11775 18.8429 5.82346 18.8429 4.31686V2.7844C18.8429 2.28141 19.2526 1.87009 19.7572 1.87009H25.2414C25.746 1.87009 26.1557 2.28141 26.1557 2.7844V4.31842C26.1557 5.82503 27.0199 7.11931 28.4137 7.69673C29.8082 8.27101 31.3329 7.96937 32.3968 6.90386L33.4788 5.81954C33.8353 5.46698 34.4166 5.46698 34.7731 5.81954L38.6591 9.70553C38.8322 9.87868 38.9262 10.1098 38.9262 10.3527C38.9262 10.5956 38.8314 10.8243 38.6591 10.9983L37.5771 12.0826C36.5116 13.1481 36.2076 14.6751 36.7842 16.0681C37.3601 17.4587 38.6544 18.3237 40.1602 18.3237H41.6942C42.1988 18.3237 42.6085 18.735 42.6085 19.238L42.6077 24.7214Z" fill="black"/>
<path d="M22.4985 9.18296C15.4418 9.18296 9.70218 14.925 9.70218 21.9793C9.70218 29.0336 15.4426 34.7757 22.4985 34.7757C29.5544 34.7757 35.2949 29.0336 35.2949 21.9793C35.2949 14.925 29.5544 9.18296 22.4985 9.18296ZM22.4985 32.9478C16.4494 32.9478 11.53 28.0284 11.53 21.9793C11.53 15.9302 16.4494 11.0108 22.4985 11.0108C28.5476 11.0108 33.467 15.9302 33.467 21.9793C33.467 28.0284 28.5476 32.9478 22.4985 32.9478Z" fill="black"/>
<path d="M22.4985 12.8386C19.038 12.8386 15.8297 14.8349 14.327 17.9225C14.106 18.3762 14.2941 18.9246 14.7493 19.1439C14.877 19.2082 15.0141 19.2372 15.1481 19.2372C15.4881 19.2372 15.8132 19.0468 15.9707 18.7232C17.1702 16.2592 19.7329 14.6672 22.4985 14.6672C23.0031 14.6672 23.4128 14.2575 23.4128 13.7529C23.4128 13.2484 23.0031 12.8386 22.4985 12.8386Z" fill="black"/>
<path d="M15.1864 21.9793C15.1864 22.4839 14.7767 22.8936 14.2721 22.8936C13.7676 22.8936 13.3578 22.4839 13.3578 21.9793C13.3578 21.4748 13.7676 21.065 14.2721 21.065C14.7767 21.065 15.1864 21.4748 15.1864 21.9793Z" fill="black"/>
</svg>
