<svg width="41" height="44" viewBox="0 0 41 44" fill="none" xmlns="http://www.w3.org/2000/svg">
<path d="M34.4314 9.33952L36.0383 7.73266L37.2189 8.91332C37.3983 9.09273 37.6318 9.18205 37.8661 9.18205C38.1003 9.18205 38.3338 9.09273 38.5132 8.91489C38.8697 8.55842 38.8697 7.97866 38.5132 7.62219L34.8568 3.96582C34.5004 3.60935 33.9206 3.60935 33.5641 3.96582C33.2077 4.32229 33.2077 4.90127 33.5641 5.25852L34.7448 6.43918L33.058 8.12595C29.8372 5.54135 25.8064 3.94154 21.4136 3.74254V1.87009H23.2414C23.7459 1.87009 24.1557 1.46035 24.1557 0.956586C24.1557 0.452043 23.7459 0.0422974 23.2414 0.0422974H17.7572C17.2527 0.0422974 16.8429 0.452043 16.8429 0.956586C16.8429 1.46113 17.2527 1.87009 17.7572 1.87009H19.585V3.74411C15.1922 3.9431 11.1613 5.54291 7.94054 8.12752L6.25298 6.43996L7.43367 5.2593C7.79014 4.90283 7.79014 4.32386 7.43367 3.96661C7.0772 3.61014 6.49745 3.61014 6.14098 3.96661L2.48457 7.62298C2.1281 7.97945 2.1281 8.5592 2.48457 8.91567C2.66398 9.09273 2.89747 9.18283 3.13172 9.18283C3.36598 9.18283 3.59943 9.09352 3.77884 8.91567L4.95952 7.73266L6.56637 9.33952C2.76584 12.999 0.38884 18.1267 0.38884 23.8067C0.38884 34.8941 9.41032 43.9156 20.4977 43.9156C31.5851 43.9156 40.6066 34.8941 40.6066 23.8067C40.6089 18.1275 38.2327 12.999 34.4314 9.33952ZM20.5001 42.0878C10.4202 42.0878 2.21978 33.8866 2.21978 23.8067C2.21978 13.7268 10.4202 5.52646 20.5001 5.52646C30.58 5.52646 38.7804 13.7268 38.7804 23.8067C38.7804 33.8866 30.58 42.0878 20.5001 42.0878Z" fill="black"/>
<path d="M8.83681 14.4656C9.08908 14.4656 9.33979 14.3614 9.52076 14.1585C10.8001 12.7201 12.2832 11.5739 13.9261 10.7513C14.3774 10.5249 14.5607 9.97647 14.3359 9.52441C14.1071 9.0708 13.561 8.88669 13.109 9.11467C11.2553 10.0415 9.58817 11.3303 8.15523 12.9442C7.81913 13.3202 7.8536 13.8984 8.23044 14.2345C8.40358 14.3889 8.62136 14.4656 8.83681 14.4656Z" fill="black"/>
<path d="M9.53174 23.8067C9.53174 23.3022 9.122 22.8925 8.61746 22.8925H4.96109C4.45655 22.8925 4.04758 23.3022 4.04758 23.8067C4.04758 24.3113 4.45731 24.721 4.96186 24.721H8.61822C9.12198 24.721 9.53174 24.3113 9.53174 23.8067Z" fill="black"/>
<path d="M36.0383 22.8932H35.0785C34.6218 15.5593 28.7482 9.68581 21.4136 9.22827V8.26854C21.4136 7.764 21.0038 7.35425 20.4993 7.35425C19.9947 7.35425 19.585 7.764 19.585 8.26854V11.9249C19.585 12.4295 19.9947 12.8384 20.4993 12.8384C21.0038 12.8384 21.4136 12.4287 21.4136 11.9241V11.0561C27.7407 11.5058 32.7987 16.5661 33.25 22.8925H32.3819C31.8774 22.8925 31.4676 23.3022 31.4676 23.8067C31.4676 24.3113 31.8774 24.721 32.3819 24.721H33.25C32.8003 31.0458 27.7399 36.1061 21.4136 36.5574V35.6886C21.4136 35.184 21.0038 34.7743 20.4993 34.7743C19.9947 34.7743 19.585 35.184 19.585 35.6886V36.5535C16.4574 36.3302 13.5454 34.9756 11.3658 32.731L19.122 26.1626C19.5278 26.4007 19.9939 26.5465 20.4985 26.5465C22.0105 26.5465 23.2406 25.3165 23.2406 23.8044C23.2406 22.2923 22.0105 21.0623 20.4985 21.0623C18.9864 21.0623 17.7564 22.2923 17.7564 23.8044C17.7564 24.1444 17.8261 24.4664 17.939 24.7657L8.02515 33.1604C7.64126 33.4879 7.59189 34.0637 7.91938 34.4492C8.09879 34.663 8.35577 34.7743 8.61588 34.7743C8.82427 34.7743 9.03424 34.703 9.2066 34.5588L9.97047 33.9117C12.5002 36.5645 15.9169 38.1525 19.5842 38.3813V39.3449C19.5842 39.8495 19.9939 40.2592 20.4985 40.2592C21.003 40.2592 21.4128 39.8495 21.4128 39.3449V38.3852C28.7467 37.9285 34.6202 32.0549 35.0777 24.7202H36.0375C36.542 24.7202 36.9518 24.3105 36.9518 23.806C36.9518 23.3022 36.542 22.8925 36.0383 22.8932ZM20.5001 22.8932C21.0046 22.8932 21.4143 23.3045 21.4143 23.8075C21.4143 24.3105 21.0046 24.7218 20.5001 24.7218C19.9955 24.7218 19.5858 24.3105 19.5858 23.8075C19.5858 23.3045 19.9955 22.8932 20.5001 22.8932Z" fill="black"/>
<path d="M7.77681 16.3671C7.77681 16.8716 7.36707 17.2814 6.86253 17.2814C6.35721 17.2814 5.94825 16.8716 5.94825 16.3671C5.94825 15.8618 6.35721 15.4528 6.86253 15.4528C7.36707 15.4528 7.77681 15.8618 7.77681 16.3671Z" fill="black"/>
<path d="M19.5858 18.3226H21.4136C21.9181 18.3226 22.3279 17.9128 22.3279 17.4083C22.3279 16.9037 21.9181 16.4948 21.4143 16.4948H19.5865C19.082 16.4948 18.6723 16.9045 18.6723 17.4091C18.6723 17.9128 19.0812 18.3226 19.5858 18.3226Z" fill="black"/>
</svg>
